HIERARCHY
ROOT joint_Root
{
	OFFSET 0.0 0.0 0.0
	CHANNELS 6 Xposition Yposition Zposition Zrotation Xrotation Yrotation 
	JOINT Hips
	{
		OFFSET -17.1583 93.1646 452.98
		CHANNELS 6 Xposition Yposition Zposition Zrotation Xrotation Yrotation 
		JOINT Spine
		{
			OFFSET 15.7357 0.0 0.0
			CHANNELS 6 Xposition Yposition Zposition Zrotation Xrotation Yrotation 
			JOINT Chest
			{
				OFFSET 8.98455 -0.406207 0.0
				CHANNELS 6 Xposition Yposition Zposition Zrotation Xrotation Yrotation 
				JOINT Neck
				{
					OFFSET 16.3773 0.0 0.0
					CHANNELS 6 Xposition Yposition Zposition Zrotation Xrotation Yrotation 
					JOINT Head
					{
						OFFSET 6.45672 0.0 0.0
						CHANNELS 6 Xposition Yposition Zposition Zrotation Xrotation Yrotation 
						End Site
						{
							OFFSET 0.0 0.0 0.0
						}
					}
				}
				JOINT Shoulder_L
				{
					OFFSET 12.9942 -0.242716 4.98039
					CHANNELS 6 Xposition Yposition Zposition Zrotation Xrotation Yrotation 
					JOINT UpperArm_L
					{
						OFFSET 5.34809 0.0 0.0
						CHANNELS 6 Xposition Yposition Zposition Zrotation Xrotation Yrotation 
						JOINT LowerArm_L
						{
							OFFSET 24.3286 1.87007e-05 0.0
							CHANNELS 6 Xposition Yposition Zposition Zrotation Xrotation Yrotation 
							JOINT Hand_L
							{
								OFFSET 22.2916 0.0 0.0
								CHANNELS 6 Xposition Yposition Zposition Zrotation Xrotation Yrotation 
								End Site
								{
									OFFSET 0.0 0.0 0.0
								}
							}
						}
					}
				}
				JOINT Shoulder_R
				{
					OFFSET 12.9945 -0.242716 -4.98039
					CHANNELS 6 Xposition Yposition Zposition Zrotation Xrotation Yrotation 
					JOINT UpperArm_R
					{
						OFFSET -5.34813 0.0 0.0
						CHANNELS 6 Xposition Yposition Zposition Zrotation Xrotation Yrotation 
						JOINT LowerArm_R
						{
							OFFSET -24.3289 0.000322201 0.0
							CHANNELS 6 Xposition Yposition Zposition Zrotation Xrotation Yrotation 
							JOINT Hand_R
							{
								OFFSET -22.2915 -0.000108084 0.0
								CHANNELS 6 Xposition Yposition Zposition Zrotation Xrotation Yrotation 
								End Site
								{
									OFFSET 0.0 0.0 0.0
								}
							}
						}
					}
				}
			}
		}
		JOINT UpperLeg_L
		{
			OFFSET -2.19248 -6.46944 0.0
			CHANNELS 6 Xposition Yposition Zposition Zrotation Xrotation Yrotation 
			JOINT LowerLeg_L
			{
				OFFSET 39.0811 0.0 -1.23785e-05
				CHANNELS 6 Xposition Yposition Zposition Zrotation Xrotation Yrotation 
				JOINT Foot_L
				{
					OFFSET 40.9854 0.0 -1.26872e-05
					CHANNELS 6 Xposition Yposition Zposition Zrotation Xrotation Yrotation 
					JOINT Toes_L
					{
						OFFSET 11.7543 0.0 0.0
						CHANNELS 6 Xposition Yposition Zposition Zrotation Xrotation Yrotation 
						End Site
						{
							OFFSET 0.0 0.0 0.0
						}
					}
				}
			}
		}
		JOINT UpperLeg_R
		{
			OFFSET -2.19251 6.46944 0.0
			CHANNELS 6 Xposition Yposition Zposition Zrotation Xrotation Yrotation 
			JOINT LowerLeg_R
			{
				OFFSET -39.0811 -0.00228153 -0.0401928
				CHANNELS 6 Xposition Yposition Zposition Zrotation Xrotation Yrotation 
				JOINT Foot_R
				{
					OFFSET -40.9854 0.0 0.0
					CHANNELS 6 Xposition Yposition Zposition Zrotation Xrotation Yrotation 
					JOINT Toes_R
					{
						OFFSET -11.7543 0.0 0.0
						CHANNELS 6 Xposition Yposition Zposition Zrotation Xrotation Yrotation 
						End Site
						{
							OFFSET 0.0 0.0 0.0
						}
					}
				}
			}
		}
	}
}
MOTION
Frames:	5
Frame Time:	0.0333333
0.000000 0.000000 0.000000 0.000000 0.000000 -0.000000 -0.771393 92.585200 2.986730 87.862500 -1.595620 4.221170 15.735700 0.000005 -0.000001 75.841100 86.447600 -73.429400 8.984550 -0.406207 -0.000000 -0.832045 -1.918410 4.807570 16.377300 -0.000001 -0.000001 2.787000 3.701650 -7.345880 6.456720 -0.000001 -0.000000 5.739570 3.306660 -12.961500 12.994200 -0.242716 4.980390 -92.731700 8.544120 -72.195800 5.348090 -0.000007 -0.000001 -72.773800 14.620000 3.554800 24.328600 0.000019 0.000005 11.667300 25.329100 -25.765100 22.291600 -0.000001 0.000005 -5.387780 5.126970 4.487940 12.994500 -0.242716 -4.980390 88.797800 3.516650 -71.112300 -5.348130 -0.000001 -0.000004 -67.689400 3.947600 -4.372260 -24.328900 0.000322 -0.000009 0.001513 0.002690 -11.253700 -22.291500 -0.000108 -0.000004 -9.097000 5.276450 0.722782 -2.192480 -6.469440 -0.000000 -172.438000 -6.737230 4.029190 39.081100 -0.000007 -0.000012 0.030862 -0.101907 16.849000 40.985400 -0.000006 -0.000013 -0.226310 14.072300 -71.084900 11.754300 -0.000000 0.000003 -0.001896 0.195031 -8.664320 -2.192510 6.469440 -0.000001 176.503000 7.849060 -174.737000 -39.081100 -0.002282 -0.040193 0.023727 -0.083214 13.770600 -40.985400 0.000008 0.000006 -4.309850 8.028360 -69.649600 -11.754300 -0.000006 -0.000006 -0.012783 0.291039 -4.743050
0.000000 0.000000 0.000000 0.000000 0.000000 -0.000000 -0.710591 92.576200 3.099620 87.925300 -1.146610 4.041250 15.735700 0.000005 -0.000001 75.530400 86.585200 -73.443300 8.984550 -0.406207 -0.000000 -1.115770 -1.867790 4.154680 16.377300 -0.000001 -0.000001 2.506470 3.779330 -8.099560 6.456720 -0.000001 -0.000000 5.781300 3.131340 -13.847200 12.994200 -0.242716 4.980390 -92.749700 8.555790 -72.108200 5.348090 -0.000007 -0.000001 -71.059800 13.069300 3.020240 24.328600 0.000019 0.000005 11.550000 25.934800 -25.045700 22.291600 -0.000001 0.000005 -4.622550 5.098620 5.143620 12.994500 -0.242716 -4.980390 88.992500 2.907030 -70.875300 -5.348130 -0.000001 -0.000004 -65.265600 -2.781980 -5.031480 -24.328900 0.000322 -0.000009 -0.329285 -3.132110 -6.035840 -22.291500 -0.000108 -0.000004 -8.026500 5.256910 1.245190 -2.192480 -6.469440 -0.000000 -172.538000 -6.606490 3.833950 39.081100 -0.000007 -0.000012 0.029758 -0.098245 16.851300 40.985400 -0.000006 -0.000013 -0.133143 14.354200 -71.149000 11.754300 -0.000000 0.000003 -0.001997 0.196311 -8.612290 -2.192510 6.469440 -0.000001 176.354000 8.303510 -174.724000 -39.081100 -0.002282 -0.040193 0.022211 -0.077703 13.655700 -40.985400 0.000008 0.000006 -4.420890 8.043970 -69.650000 -11.754300 -0.000006 -0.000006 -0.012359 0.288158 -4.861110
0.000000 0.000000 0.000000 0.000000 0.000000 -0.000000 -0.665644 92.542600 3.258660 87.935200 -0.580577 4.105810 15.735700 0.000005 -0.000001 77.215300 86.641800 -75.612100 8.984550 -0.406207 -0.000000 -1.191740 -1.611190 3.188510 16.377300 -0.000001 -0.000001 2.175630 3.723410 -8.443510 6.456720 -0.000001 -0.000000 5.595740 2.943450 -13.997800 12.994200 -0.242716 4.980390 -92.762700 8.562360 -72.041900 5.348090 -0.000007 -0.000001 -69.134500 11.548400 2.270160 24.328600 0.000019 0.000005 11.597300 26.597500 -24.625300 22.291600 -0.000001 0.000005 -3.311430 5.056080 6.097650 12.994500 -0.242716 -4.980390 89.217500 2.238930 -70.728800 -5.348130 -0.000001 -0.000004 -61.812500 -9.670350 -5.471040 -24.328900 0.000322 -0.000009 -0.019825 -5.322090 -0.208152 -22.291500 -0.000108 -0.000004 -6.824490 5.230460 1.938680 -2.192480 -6.469440 -0.000000 -172.620000 -6.010620 3.804130 39.081100 -0.000007 -0.000012 0.027839 -0.090887 17.030400 40.985400 -0.000006 -0.000013 -0.067178 14.324500 -71.253700 11.754300 -0.000000 0.000003 -0.001766 0.193380 -8.731460 -2.192510 6.469440 -0.000001 176.172000 8.970310 -174.473000 -39.081100 -0.002282 -0.040193 0.018746 -0.063288 13.687400 -40.985400 0.000008 0.000006 -4.708680 8.233750 -69.690100 -11.754300 -0.000006 -0.000006 -0.012205 0.287103 -4.904330
0.000000 0.000000 0.000000 0.000000 0.000000 -0.000000 -0.638479 92.498600 3.446360 87.884500 0.210253 4.182090 15.735700 0.000005 -0.000001 79.990500 86.685900 -78.975300 8.984550 -0.406207 -0.000000 -1.227110 -1.231450 2.016450 16.377300 -0.000001 -0.000001 1.671990 3.531160 -8.582040 6.456720 -0.000001 -0.000000 5.371310 2.592450 -13.676800 12.994200 -0.242716 4.980390 -92.772300 8.502430 -71.865400 5.348090 -0.000007 -0.000001 -67.263200 9.966090 1.423400 24.328600 0.000019 0.000005 11.482400 26.631800 -24.378200 22.291600 -0.000001 0.000005 -1.960820 5.023810 6.805240 12.994500 -0.242716 -4.980390 89.477900 1.476710 -70.523800 -5.348130 -0.000001 -0.000004 -57.245400 -18.058400 -4.555520 -24.328900 0.000322 -0.000009 -0.001012 -5.882410 -0.000038 -22.291500 -0.000108 -0.000004 -5.176760 5.128520 4.428980 -2.192480 -6.469440 -0.000000 -172.686000 -5.013770 3.655300 39.081100 -0.000007 -0.000012 0.027499 -0.087807 17.389500 40.985400 -0.000006 -0.000013 -0.020623 14.131400 -71.473500 11.754300 -0.000000 0.000003 -0.001878 0.194804 -8.673570 -2.192510 6.469440 -0.000001 176.060000 9.651980 -174.147000 -39.081100 -0.002282 -0.040193 0.014011 -0.043846 13.687900 -40.985400 0.000008 0.000006 -5.076350 8.287310 -69.767000 -11.754300 -0.000006 -0.000006 -0.012417 0.288556 -4.844820
0.000000 0.000000 0.000000 0.000000 0.000000 -0.000000 -0.616699 92.470500 3.634320 87.894000 1.251940 4.119550 15.735700 0.000005 -0.000001 81.599900 86.742200 -81.264800 8.984550 -0.406207 -0.000000 -1.317420 -0.978182 0.658803 16.377300 -0.000001 -0.000001 1.131470 3.251480 -8.707790 6.456720 -0.000001 -0.000000 4.998440 2.227710 -13.251200 12.994200 -0.242716 4.980390 -92.765800 8.383720 -71.667900 5.348090 -0.000007 -0.000001 -65.528900 8.064810 0.931532 24.328600 0.000019 0.000005 11.483400 26.057500 -24.819300 22.291600 -0.000001 0.000005 -1.293540 5.006830 7.173290 12.994500 -0.242716 -4.980390 89.832000 0.464423 -70.104900 -5.348130 -0.000001 -0.000004 -51.719900 -27.565500 -2.480600 -24.328900 0.000322 -0.000009 -0.000931 -8.059610 -0.000048 -22.291500 -0.000108 -0.000004 -3.002930 4.986890 7.571410 -2.192480 -6.469440 -0.000000 -172.851000 -3.748700 3.413450 39.081100 -0.000007 -0.000012 0.026643 -0.084152 17.568000 40.985400 -0.000006 -0.000013 -0.018190 13.862200 -71.594100 11.754300 -0.000000 0.000003 -0.002074 0.197274 -8.573110 -2.192510 6.469440 -0.000001 175.934000 10.317300 -173.878000 -39.081100 -0.002282 -0.040193 0.007215 -0.016088 13.566700 -40.985400 0.000008 0.000006 -5.697950 8.088640 -69.728000 -11.754300 -0.000006 -0.000006 -0.012403 0.288458 -4.848830
